<svg xmlns="http://www.w3.org/2000/svg" width="111.604" height="20" viewBox="0 0 111.604 20"><g transform="translate(-175.988 -325.295)"><g transform="translate(175.988 325.295)"><path d="M192.007,345.3a4.038,4.038,0,0,1-2.759-1.1l-2.446-2.269a1.114,1.114,0,0,0-1.508,0l-2.446,2.269h0a4.083,4.083,0,0,1-6.86-2.993v-6.341a3.329,3.329,0,0,1,1.061-2.432l6.742-6.255a3.334,3.334,0,0,1,4.514,0l6.742,6.255a3.329,3.329,0,0,1,1.061,2.433V341.2a4.031,4.031,0,0,1-2.45,3.742A4.127,4.127,0,0,1,192.007,345.3Zm-5.959-5.868a3.311,3.311,0,0,1,2.257.88l2.446,2.27A1.874,1.874,0,0,0,193.9,341.2v-6.341a1.113,1.113,0,0,0-.355-.813L186.8,327.8a1.115,1.115,0,0,0-1.508,0l-6.742,6.255a1.113,1.113,0,0,0-.354.813V341.2a1.873,1.873,0,0,0,3.147,1.373l2.446-2.27A3.311,3.311,0,0,1,186.048,339.427Z" transform="translate(-175.988 -325.295)"/><path d="M194.514,345.56a1.884,1.884,0,1,1,1.884,1.884A1.884,1.884,0,0,1,194.514,345.56Z" transform="translate(-186.338 -335.563)"/></g><g transform="translate(202.241 330.435)"><g transform="translate(0 0)"><path d="M238.3,346.68v-7.1h-2.822V337.63h7.606v1.949h-2.835v7.1Z" transform="translate(-235.474 -337.326)"/><path d="M258.01,346.493a3.7,3.7,0,0,1-1.114-.455,5.8,5.8,0,0,1-.949-.709,4.59,4.59,0,0,1-1.025-1.468,4.393,4.393,0,0,1-.228-.607,3.942,3.942,0,0,1-.139-.646,3.8,3.8,0,0,1-.051-.658,3.856,3.856,0,0,1,.051-.671,3.927,3.927,0,0,1,.139-.645,4.391,4.391,0,0,1,.228-.607,6.039,6.039,0,0,1,.291-.57,4.734,4.734,0,0,1,.734-.911,5.794,5.794,0,0,1,.949-.709,3.7,3.7,0,0,1,1.114-.455,4.924,4.924,0,0,1,2.43,0,4.475,4.475,0,0,1,1.113.455,5.451,5.451,0,0,1,.95.709,4.731,4.731,0,0,1,.733.911,6.035,6.035,0,0,1,.291.57,4.275,4.275,0,0,1,.228.607,5.829,5.829,0,0,1,.139.645,3.9,3.9,0,0,1,.05.671,6.1,6.1,0,0,1-.165,1.2,4.046,4.046,0,0,1-.455,1.114,5.81,5.81,0,0,1-.709.949,4.749,4.749,0,0,1-.911.734,6.154,6.154,0,0,1-.57.291,4.292,4.292,0,0,1-.608.228,3.694,3.694,0,0,1-.632.127,3.854,3.854,0,0,1-.671.051A4.849,4.849,0,0,1,258.01,346.493Zm.531-7.2a3.054,3.054,0,0,0-.633.266,2.471,2.471,0,0,0-.544.418,2.132,2.132,0,0,0-.43.531l-.165.329c-.05.113-.089.24-.126.354a3.093,3.093,0,0,0-.089.367,3.073,3.073,0,0,0,0,.785,3.077,3.077,0,0,0,.089.367c.038.114.076.228.126.342l.165.329a2.14,2.14,0,0,0,.43.531,2.475,2.475,0,0,0,.544.418,3.107,3.107,0,0,0,.633.278,2.4,2.4,0,0,0,.684.089,3.441,3.441,0,0,0,.38-.025,3.131,3.131,0,0,0,.367-.089,3.62,3.62,0,0,0,.342-.127,2.5,2.5,0,0,0,.316-.177,3.447,3.447,0,0,0,.532-.43,3.01,3.01,0,0,0,.4-.557,3.5,3.5,0,0,0,.266-.645,2.588,2.588,0,0,0,.088-.7,3.675,3.675,0,0,0-.026-.392,1.713,1.713,0,0,0-.088-.367c-.038-.114-.076-.241-.127-.354s-.114-.215-.177-.329a2.761,2.761,0,0,0-.418-.531,2.471,2.471,0,0,0-.544-.418,3.054,3.054,0,0,0-.633-.266,2.69,2.69,0,0,0-1.367,0Z" transform="translate(-246.105 -337.101)"/><path d="M280.514,346.295v-3.418l-3.683-4.746c.164-.139.38-.3.632-.493l.9-.7c1.557,2.013,2.607,3.342,3.126,4.013l3.114-4.013q.247.209.646.494c.252.19.544.43.886.7l-3.683,4.746v3.418Z" transform="translate(-258.579 -336.941)"/><path d="M302.32,346.493a3.71,3.71,0,0,1-1.114-.455,5.837,5.837,0,0,1-.949-.709,4.73,4.73,0,0,1-.733-.911,4.634,4.634,0,0,1-.291-.557,4.276,4.276,0,0,1-.228-.607,3.9,3.9,0,0,1-.139-.646,3.847,3.847,0,0,1-.05-.658,4.833,4.833,0,0,1,.19-1.316,4.275,4.275,0,0,1,.228-.607,5.928,5.928,0,0,1,.291-.57,4.733,4.733,0,0,1,.733-.911,5.833,5.833,0,0,1,.949-.709,3.709,3.709,0,0,1,1.114-.455,4.924,4.924,0,0,1,2.43,0,4.471,4.471,0,0,1,1.114.455,5.447,5.447,0,0,1,.949.709,4.734,4.734,0,0,1,.734.911,6.043,6.043,0,0,1,.291.57,4.389,4.389,0,0,1,.228.607,5.82,5.82,0,0,1,.139.645,3.857,3.857,0,0,1,.051.671,6.1,6.1,0,0,1-.165,1.2,4.06,4.06,0,0,1-.455,1.114,5.835,5.835,0,0,1-.709.949,4.752,4.752,0,0,1-.911.734,6.041,6.041,0,0,1-.57.291,4.286,4.286,0,0,1-.607.228,3.69,3.69,0,0,1-.633.127,3.85,3.85,0,0,1-.671.051A4.852,4.852,0,0,1,302.32,346.493Zm.532-7.2a3.047,3.047,0,0,0-.633.266,2.492,2.492,0,0,0-.544.418,2.141,2.141,0,0,0-.43.531l-.165.329c-.051.113-.089.24-.127.354a3.185,3.185,0,0,0-.089.367,3.073,3.073,0,0,0,0,.785,3.168,3.168,0,0,0,.089.367c.038.114.076.228.127.342l.165.329a2.148,2.148,0,0,0,.43.531,2.5,2.5,0,0,0,.544.418,3.1,3.1,0,0,0,.633.278,2.4,2.4,0,0,0,.683.089,3.443,3.443,0,0,0,.38-.025,3.1,3.1,0,0,0,.367-.089,3.581,3.581,0,0,0,.342-.127,2.5,2.5,0,0,0,.316-.177,3.423,3.423,0,0,0,.531-.43,2.993,2.993,0,0,0,.405-.557,3.465,3.465,0,0,0,.266-.645,2.57,2.57,0,0,0,.089-.7,3.8,3.8,0,0,0-.026-.392,1.715,1.715,0,0,0-.089-.367c-.038-.114-.076-.241-.126-.354s-.114-.215-.177-.329a2.762,2.762,0,0,0-.418-.531,2.475,2.475,0,0,0-.545-.418,3.04,3.04,0,0,0-.632-.266,2.69,2.69,0,0,0-1.367,0Z" transform="translate(-270.86 -337.101)"/><path d="M325.55,346.6a3.25,3.25,0,0,1-1.19-.785,3.148,3.148,0,0,1-.759-1.253,5.042,5.042,0,0,1-.253-1.645V337.6h1.987v5.315c0,.139,0,.279.013.418a2.9,2.9,0,0,0,.063.354,1.605,1.605,0,0,0,.088.291,2.144,2.144,0,0,0,.114.241,1.235,1.235,0,0,0,.291.329,1.019,1.019,0,0,0,.367.189c.139.038.279.076.418.1s.291.025.443.025a3.356,3.356,0,0,0,.671-.063,1.284,1.284,0,0,0,.481-.2,1.461,1.461,0,0,0,.316-.3,1.091,1.091,0,0,0,.2-.38,1.309,1.309,0,0,0,.064-.24l.038-.241a1.678,1.678,0,0,0,.013-.253,1.908,1.908,0,0,0,.012-.266V337.6h1.987v5.315a5.042,5.042,0,0,1-.253,1.645,3.149,3.149,0,0,1-.759,1.253,3.247,3.247,0,0,1-1.19.785,5.067,5.067,0,0,1-3.164,0Z" transform="translate(-284.566 -337.31)"/><path d="M348.078,346.566a3.922,3.922,0,0,1-.645-.127,4.362,4.362,0,0,1-.607-.228,4.765,4.765,0,0,1-.557-.3,4.645,4.645,0,0,1-.9-.734,5.548,5.548,0,0,1-.722-.949,4.217,4.217,0,0,1-.455-1.1,4.923,4.923,0,0,1,0-2.43,4.223,4.223,0,0,1,.455-1.1,5.543,5.543,0,0,1,.722-.949,4.647,4.647,0,0,1,.9-.734,4.7,4.7,0,0,1,.557-.3,4.288,4.288,0,0,1,.607-.215,5.835,5.835,0,0,1,.645-.139,3.811,3.811,0,0,1,.658-.051,4.3,4.3,0,0,1,.911.088,4.585,4.585,0,0,1,.873.253,4,4,0,0,1,.8.431,4.437,4.437,0,0,1,.708.582l.241.241-1.139,1.379-.291-.266a4.089,4.089,0,0,0-.493-.367,2.759,2.759,0,0,0-.494-.215,2.333,2.333,0,0,0-.531-.127,4.309,4.309,0,0,0-.582-.038,2.882,2.882,0,0,0-1.1.2,2.559,2.559,0,0,0-.9.582,2.636,2.636,0,0,0-.81,1.975,2.71,2.71,0,0,0,.2,1.076,2.77,2.77,0,0,0,.607.886,2.6,2.6,0,0,0,.9.595,2.89,2.89,0,0,0,1.1.2,3.334,3.334,0,0,0,.62-.051,4.961,4.961,0,0,0,.582-.152,2.06,2.06,0,0,0,.532-.253,2.787,2.787,0,0,0,.481-.405l.127-.139.177-.19,1.228,1.316-.228.266a4.112,4.112,0,0,1-.734.671,5.166,5.166,0,0,1-.861.481,4.469,4.469,0,0,1-.936.3,4.221,4.221,0,0,1-.987.1A3.91,3.91,0,0,1,348.078,346.566Z" transform="translate(-296.126 -337.086)"/><path d="M368.7,346.493a3.712,3.712,0,0,1-1.113-.455,5.84,5.84,0,0,1-.95-.709,4.6,4.6,0,0,1-1.025-1.468,4.283,4.283,0,0,1-.227-.607,3.9,3.9,0,0,1-.14-.646,3.844,3.844,0,0,1-.05-.658,4.811,4.811,0,0,1,.19-1.316,4.281,4.281,0,0,1,.227-.607,6.154,6.154,0,0,1,.291-.57,4.732,4.732,0,0,1,.734-.911,5.836,5.836,0,0,1,.95-.709,3.711,3.711,0,0,1,1.113-.455,4.924,4.924,0,0,1,2.43,0,4.464,4.464,0,0,1,1.114.455,5.45,5.45,0,0,1,.949.709,4.734,4.734,0,0,1,.734.911,5.935,5.935,0,0,1,.291.57,4.393,4.393,0,0,1,.228.607,5.832,5.832,0,0,1,.139.645,3.857,3.857,0,0,1,.051.671,6.164,6.164,0,0,1-.165,1.2,4.073,4.073,0,0,1-.455,1.114,5.837,5.837,0,0,1-.709.949,4.749,4.749,0,0,1-.911.734,6.045,6.045,0,0,1-.57.291,4.291,4.291,0,0,1-.608.228,3.694,3.694,0,0,1-.632.127,3.852,3.852,0,0,1-.671.051A4.857,4.857,0,0,1,368.7,346.493Zm.532-7.2a3.057,3.057,0,0,0-.633.266,2.479,2.479,0,0,0-.544.418,2.14,2.14,0,0,0-.43.531l-.165.329c-.05.113-.088.24-.127.354a3.093,3.093,0,0,0-.088.367,3.073,3.073,0,0,0,0,.785,3.078,3.078,0,0,0,.088.367c.038.114.076.228.127.342l.165.329a2.148,2.148,0,0,0,.43.531,2.483,2.483,0,0,0,.544.418,3.111,3.111,0,0,0,.633.278,2.4,2.4,0,0,0,.683.089,3.434,3.434,0,0,0,.38-.025,3.059,3.059,0,0,0,.367-.089,3.532,3.532,0,0,0,.342-.127,2.465,2.465,0,0,0,.316-.177,3.422,3.422,0,0,0,.531-.43,2.991,2.991,0,0,0,.405-.557,3.47,3.47,0,0,0,.266-.645,2.553,2.553,0,0,0,.089-.7c0-.139-.013-.266-.025-.392a1.74,1.74,0,0,0-.09-.367,3.58,3.58,0,0,0-.126-.354c-.051-.114-.114-.215-.177-.329a2.759,2.759,0,0,0-.417-.531,2.485,2.485,0,0,0-.545-.418,3.055,3.055,0,0,0-.633-.266,2.69,2.69,0,0,0-1.367,0Z" transform="translate(-307.943 -337.101)"/><path d="M392.123,343.538v3.126h-1.937V337.6h3.468a2.932,2.932,0,0,1,1.127.215,2.7,2.7,0,0,1,.936.646,3.041,3.041,0,0,1,.62.962,2.987,2.987,0,0,1,.2,1.139,3.17,3.17,0,0,1-.114.873,2.672,2.672,0,0,1-.354.772,2.887,2.887,0,0,1-.595.646,3.925,3.925,0,0,1-.848.481l.987,1.012c.393.405.861.873,1.38,1.418l-.557.531-.785.734-1.38-1.456-1.911-2.037Zm-.012-1.886h1.531a.992.992,0,0,0,.392-.076.813.813,0,0,0,.316-.241,1.348,1.348,0,0,0,.228-.342.931.931,0,0,0,.075-.38.99.99,0,0,0-.075-.392,1.35,1.35,0,0,0-.228-.342.815.815,0,0,0-.316-.24.985.985,0,0,0-.392-.076H392.11Z" transform="translate(-321.906 -337.31)"/><path d="M409.532,346.651V337.6h3.43a3.058,3.058,0,0,1,.772.1,2.39,2.39,0,0,1,.7.291,4.315,4.315,0,0,1,.594.455,2.49,2.49,0,0,1,.456.57,2.061,2.061,0,0,1,.19.367,1.686,1.686,0,0,1,.139.38c.038.139.076.266.1.4s.025.279.025.418a3.154,3.154,0,0,1-.1.772,2.4,2.4,0,0,1-.291.7,3.464,3.464,0,0,1-.443.595,2.569,2.569,0,0,1-.57.455l-.354.19a2.045,2.045,0,0,1-.393.139c-.139.038-.265.076-.4.1s-.278.025-.417.025h-1.468v3.1C410.519,346.651,409.861,346.651,409.532,346.651Zm3.43-5.063a1.358,1.358,0,0,0,.392-.063,1.1,1.1,0,0,0,.328-.228.872.872,0,0,0,.216-.329,1.031,1.031,0,0,0,.076-.392.983.983,0,0,0-.076-.392.963.963,0,0,0-.544-.544,1.03,1.03,0,0,0-.392-.076h-1.468v2.025h1.468Z" transform="translate(-332.713 -337.31)"/></g><path d="M425.623,353.614a1.28,1.28,0,1,1-1.28-1.28A1.28,1.28,0,0,1,425.623,353.614Z" transform="translate(-340.273 -345.54)"/></g></g></svg>