<svg xmlns="http://www.w3.org/2000/svg" width="36.214" height="35.68" viewBox="0 0 36.214 35.68"><defs><style>.a,.b{fill:#fff;stroke:#030504;stroke-miterlimit:10;stroke-width:1.3px;}.b{stroke-linecap:round;}</style></defs><g transform="translate(0.65 0.65)"><ellipse class="a" cx="3.941" cy="3.941" rx="3.941" ry="3.941" transform="translate(12.987 0)"/><ellipse class="a" cx="3.941" cy="3.941" rx="3.941" ry="3.941" transform="translate(26.642 20.316)"/><path class="b" d="M83.44,254.412l4.737-10.953a4.081,4.081,0,0,1,4.291-1.924c2.888.592,3.11,2.738,3.258,4s.148,3.479,1.036,4.219,2.754,2.595,2.754,2.595a2.262,2.262,0,0,1,.3,2.7c-.888,1.48-2.842.69-2.842.69a6.044,6.044,0,0,1-.958-.523c-.347-.268-2.229-1.971-2.229-1.971a5.28,5.28,0,0,1-1.8-3.22l-.925-3.081" transform="translate(-79.481 -233.095)"/><line class="b" y1="2.284" x2="0.653" transform="translate(13.285 19.81)"/><path class="b" d="M90.7,265.8h12.767a3.788,3.788,0,0,1,3.182,2.035l1.886,2.776a2.634,2.634,0,0,0,1.963,1.184h5.218s1.48.074.962,1.333-2.554,2.125-2.84,2.209a19.35,19.35,0,0,1-4.672.048,6.47,6.47,0,0,1-3.109-1.221,42.513,42.513,0,0,1-3.664-4.144" transform="translate(-81.894 -241.189)"/><line class="b" x2="13.321" transform="translate(8.807 30.938)"/><path class="b" d="M77.51,264.191h7.16s1.647-.111,1.647,2v8.845" transform="translate(-77.51 -240.654)"/></g></svg>