<svg xmlns="http://www.w3.org/2000/svg" width="21" height="23" viewBox="0 0 21 23"><defs><style>.a{opacity:0.8;}.b{fill:none;}.c,.d{stroke:none;}</style></defs><g class="a"><g class="b" transform="translate(2 3)"><path class="c" d="M1,16a1,1,0,0,1-1-1V7.846a1,1,0,0,1,.057-.332,8.5,8.5,0,0,1,16.887,0A1,1,0,0,1,17,7.846V15a1,1,0,0,1-1,1Z"/><path class="d" d="M 16.00020027160645 15.00020027160645 L 16.00010108947754 15.00030040740967 L 16.00028991699219 7.846260070800781 L 15.96294021606445 7.740300178527832 L 15.95004081726074 7.628680229187012 C 15.51316070556641 3.84971022605896 12.31055068969727 1.00000011920929 8.500500679016113 1.00000011920929 C 4.690030574798584 1.00000011920929 1.487040519714355 3.849720239639282 1.050060510635376 7.628700256347656 L 1.037380576133728 7.740200042724609 L 1.000000596046448 7.846199989318848 L 1.000000596046448 8.500499725341797 L 0.9999005198478699 15.00020027160645 L 16.00020027160645 15.00020027160645 M 16.00020027160645 16.00020027160645 L 0.9999005198478699 16.00020027160645 C 0.4473005533218384 16.00020027160645 5.447387820822769e-07 15.55290031433105 5.447387820822769e-07 15.00030040740967 L 5.447387820822769e-07 8.500499725341797 L 5.447387820822769e-07 7.846199989318848 C 5.447387820822769e-07 7.729690074920654 0.02000054530799389 7.617860317230225 0.05668054521083832 7.513830184936523 C 0.5457605719566345 3.284280061721802 4.139900684356689 1.358032193365943e-07 8.500500679016113 1.358032193365943e-07 C 12.86110019683838 1.358032193365943e-07 16.4544506072998 3.284290075302124 16.94342041015625 7.513840198516846 C 16.98007965087891 7.617850303649902 17.00010108947754 7.729720115661621 17.00010108947754 7.846199989318848 L 17.00010108947754 15.00030040740967 C 17.00010108947754 15.55290031433105 16.55280113220215 16.00020027160645 16.00020027160645 16.00020027160645 Z"/></g><g class="b" transform="translate(6 18)"><path class="c" d="M4.5,5A4.776,4.776,0,0,1,0,0H9A4.775,4.775,0,0,1,4.5,5Z"/><path class="d" d="M 4.500669956207275 3.999999761581421 C 6.12824821472168 3.999999761581421 7.49985933303833 2.72330641746521 7.889298439025879 0.9999997615814209 L 1.110743761062622 0.9999997615814209 C 1.500332117080688 2.72330641746521 2.872467517852783 3.999999761581421 4.500669956207275 3.999999761581421 M 4.500669956207275 5 C 2.018990039825439 5 0 2.757009744644165 0 -2.384185791015625e-07 L 9 -2.384185791015625e-07 C 9 2.757759809494019 6.980939865112305 5 4.500669956207275 5 Z"/></g><rect width="1" height="7" rx="0.5" transform="translate(10)"/><rect width="1" height="21" rx="0.5" transform="translate(21 18) rotate(90)"/></g></svg>