<svg xmlns="http://www.w3.org/2000/svg" width="17.696" height="16.389" viewBox="0 0 17.696 16.389"><defs><style>.a{fill:none;stroke:#000;}</style></defs><path class="a" d="M1057.963,1173.872a4.389,4.389,0,0,0-2.948-3.715,4.026,4.026,0,0,0-4.334.964l-1.072.965-.977-.965a4.025,4.025,0,0,0-4.333-.964,4.39,4.39,0,0,0-2.949,3.715,5.573,5.573,0,0,0,.9,3.673,15.668,15.668,0,0,0,2.626,3.074c1.524,1.459,4.769,4.475,4.782,4.486.012-.01,3.257-3.026,4.781-4.486a15.665,15.665,0,0,0,2.627-3.074A5.575,5.575,0,0,0,1057.963,1173.872Z" transform="translate(-1040.808 -1169.372)"/></svg>