<svg xmlns="http://www.w3.org/2000/svg" width="125.334" height="22.46" viewBox="0 0 125.334 22.46"><defs><style>.a{fill:#f25460;}.b{fill:#3b2e30;}</style></defs><g transform="translate(-175.988 -325.295)"><g transform="translate(175.988 325.295)"><path class="a" d="M193.978,347.756a4.535,4.535,0,0,1-3.1-1.234l-2.747-2.549a1.251,1.251,0,0,0-1.694,0l-2.747,2.549h0a4.585,4.585,0,0,1-7.7-3.361V336.04a3.738,3.738,0,0,1,1.191-2.731l7.572-7.025a3.744,3.744,0,0,1,5.069,0l7.571,7.024a3.739,3.739,0,0,1,1.192,2.732v7.121a4.527,4.527,0,0,1-2.752,4.2A4.635,4.635,0,0,1,193.978,347.756Zm-6.692-6.59a3.719,3.719,0,0,1,2.535.989l2.747,2.549a2.1,2.1,0,0,0,3.535-1.542V336.04a1.25,1.25,0,0,0-.4-.913l-7.571-7.024a1.252,1.252,0,0,0-1.694,0l-7.571,7.025a1.25,1.25,0,0,0-.4.912v7.121A2.1,2.1,0,0,0,182,344.7l2.747-2.549A3.719,3.719,0,0,1,187.286,341.165Z" transform="translate(-175.988 -325.295)"/><path class="a" d="M194.514,345.791a2.116,2.116,0,1,1,2.116,2.116A2.116,2.116,0,0,1,194.514,345.791Z" transform="translate(-185.332 -334.565)"/></g><g transform="translate(205.471 331.067)"><g transform="translate(0 0)"><path class="a" d="M238.644,347.793v-7.974h-3.17V337.63h8.542v2.189h-3.184v7.974Z" transform="translate(-235.474 -337.289)"/><path class="a" d="M258.441,347.633a4.156,4.156,0,0,1-1.251-.512,6.513,6.513,0,0,1-1.066-.8,5.155,5.155,0,0,1-1.151-1.648,4.928,4.928,0,0,1-.256-.682,4.425,4.425,0,0,1-.156-.725,4.272,4.272,0,0,1-.057-.739,4.331,4.331,0,0,1,.057-.753,4.409,4.409,0,0,1,.156-.725,4.927,4.927,0,0,1,.256-.682,6.784,6.784,0,0,1,.327-.64,5.317,5.317,0,0,1,.824-1.023,6.509,6.509,0,0,1,1.066-.8,4.155,4.155,0,0,1,1.251-.512,5.53,5.53,0,0,1,2.729,0,5.027,5.027,0,0,1,1.25.512,6.122,6.122,0,0,1,1.067.8,5.313,5.313,0,0,1,.824,1.023,6.784,6.784,0,0,1,.327.64,4.8,4.8,0,0,1,.256.682,6.547,6.547,0,0,1,.157.725,4.38,4.38,0,0,1,.057.753,6.849,6.849,0,0,1-.185,1.351,4.542,4.542,0,0,1-.511,1.251,6.525,6.525,0,0,1-.8,1.066,5.333,5.333,0,0,1-1.023.824,6.915,6.915,0,0,1-.64.327,4.823,4.823,0,0,1-.682.256,4.147,4.147,0,0,1-.71.142,4.327,4.327,0,0,1-.753.057A5.446,5.446,0,0,1,258.441,347.633Zm.6-8.088a3.428,3.428,0,0,0-.711.3,2.774,2.774,0,0,0-.611.469,2.394,2.394,0,0,0-.483.6l-.185.37c-.057.127-.1.27-.142.4a3.476,3.476,0,0,0-.1.412c-.014.142-.028.284-.028.441a4.4,4.4,0,0,0,.028.441,3.459,3.459,0,0,0,.1.412c.042.128.085.256.142.384l.185.369a2.4,2.4,0,0,0,.483.6,2.779,2.779,0,0,0,.611.469,3.488,3.488,0,0,0,.711.313,2.694,2.694,0,0,0,.768.1,3.863,3.863,0,0,0,.426-.028,3.514,3.514,0,0,0,.412-.1,4.068,4.068,0,0,0,.384-.142,2.808,2.808,0,0,0,.355-.2,3.871,3.871,0,0,0,.6-.483,3.38,3.38,0,0,0,.455-.626,3.928,3.928,0,0,0,.3-.725,2.907,2.907,0,0,0,.1-.782,4.123,4.123,0,0,0-.029-.441,1.924,1.924,0,0,0-.1-.412c-.043-.128-.085-.271-.142-.4s-.128-.241-.2-.37a3.1,3.1,0,0,0-.469-.6,2.774,2.774,0,0,0-.611-.469,3.43,3.43,0,0,0-.711-.3,3.021,3.021,0,0,0-1.535,0Z" transform="translate(-245.072 -337.086)"/><path class="a" d="M280.967,347.445v-3.838l-4.136-5.33c.184-.156.426-.34.71-.554l1.01-.782c1.748,2.26,2.928,3.753,3.511,4.506l3.5-4.506q.277.235.725.555c.284.214.611.483.995.782l-4.137,5.33v3.838Z" transform="translate(-256.333 -336.941)"/><path class="a" d="M302.751,347.633a4.166,4.166,0,0,1-1.251-.512,6.554,6.554,0,0,1-1.066-.8,5.31,5.31,0,0,1-.824-1.023,5.2,5.2,0,0,1-.327-.625,4.8,4.8,0,0,1-.256-.682,4.38,4.38,0,0,1-.157-.725,4.321,4.321,0,0,1-.057-.739,5.428,5.428,0,0,1,.213-1.478,4.8,4.8,0,0,1,.256-.682,6.656,6.656,0,0,1,.327-.64,5.314,5.314,0,0,1,.824-1.023,6.55,6.55,0,0,1,1.066-.8,4.165,4.165,0,0,1,1.251-.512,5.531,5.531,0,0,1,2.729,0,5.022,5.022,0,0,1,1.251.512,6.118,6.118,0,0,1,1.066.8,5.316,5.316,0,0,1,.824,1.023,6.792,6.792,0,0,1,.327.64,4.927,4.927,0,0,1,.256.682,6.538,6.538,0,0,1,.156.725,4.334,4.334,0,0,1,.057.753,6.849,6.849,0,0,1-.185,1.351,4.56,4.56,0,0,1-.512,1.251,6.553,6.553,0,0,1-.8,1.066,5.335,5.335,0,0,1-1.023.824,6.787,6.787,0,0,1-.64.327,4.816,4.816,0,0,1-.682.256,4.143,4.143,0,0,1-.711.142,4.323,4.323,0,0,1-.753.057A5.449,5.449,0,0,1,302.751,347.633Zm.6-8.088a3.421,3.421,0,0,0-.711.3,2.8,2.8,0,0,0-.611.469,2.4,2.4,0,0,0-.483.6l-.185.37c-.057.127-.1.27-.142.4a3.581,3.581,0,0,0-.1.412,3.453,3.453,0,0,0,0,.881,3.563,3.563,0,0,0,.1.412c.043.128.085.256.142.384l.185.369a2.413,2.413,0,0,0,.483.6,2.8,2.8,0,0,0,.611.469,3.48,3.48,0,0,0,.711.313,2.69,2.69,0,0,0,.767.1,3.865,3.865,0,0,0,.427-.028,3.478,3.478,0,0,0,.412-.1,4.024,4.024,0,0,0,.384-.142,2.808,2.808,0,0,0,.355-.2,3.846,3.846,0,0,0,.6-.483,3.361,3.361,0,0,0,.455-.626,3.89,3.89,0,0,0,.3-.725,2.886,2.886,0,0,0,.1-.782,4.263,4.263,0,0,0-.029-.441,1.924,1.924,0,0,0-.1-.412c-.042-.128-.085-.271-.142-.4s-.128-.241-.2-.37a3.1,3.1,0,0,0-.469-.6,2.779,2.779,0,0,0-.612-.469,3.414,3.414,0,0,0-.71-.3,3.021,3.021,0,0,0-1.535,0Z" transform="translate(-267.421 -337.086)"/><path class="a" d="M325.821,347.707a3.65,3.65,0,0,1-1.336-.881,3.536,3.536,0,0,1-.852-1.407,5.662,5.662,0,0,1-.285-1.848V337.6h2.232v5.969c0,.157,0,.313.014.469a3.256,3.256,0,0,0,.071.4,1.8,1.8,0,0,0,.1.327,2.411,2.411,0,0,0,.128.27,1.387,1.387,0,0,0,.327.37,1.144,1.144,0,0,0,.412.213c.157.043.313.086.469.114s.327.028.5.028a3.769,3.769,0,0,0,.753-.071,1.442,1.442,0,0,0,.54-.227,1.641,1.641,0,0,0,.355-.341,1.225,1.225,0,0,0,.227-.427,1.47,1.47,0,0,0,.071-.27l.043-.27a1.887,1.887,0,0,0,.014-.284,2.142,2.142,0,0,0,.014-.3V337.6h2.232v5.969a5.662,5.662,0,0,1-.285,1.848,3.537,3.537,0,0,1-.852,1.407,3.647,3.647,0,0,1-1.336.881,5.69,5.69,0,0,1-3.554,0Z" transform="translate(-279.795 -337.274)"/><path class="b" d="M348.575,347.718a4.4,4.4,0,0,1-.725-.142,4.9,4.9,0,0,1-.682-.256,5.35,5.35,0,0,1-.626-.341,5.217,5.217,0,0,1-1.009-.824,6.228,6.228,0,0,1-.81-1.066,4.734,4.734,0,0,1-.511-1.237,5.529,5.529,0,0,1,0-2.729,4.741,4.741,0,0,1,.511-1.237,6.223,6.223,0,0,1,.81-1.066,5.219,5.219,0,0,1,1.009-.825,5.276,5.276,0,0,1,.626-.341,4.816,4.816,0,0,1,.682-.242,6.547,6.547,0,0,1,.725-.156,4.281,4.281,0,0,1,.739-.057,4.824,4.824,0,0,1,1.023.1,5.147,5.147,0,0,1,.98.285,4.485,4.485,0,0,1,.9.484,4.983,4.983,0,0,1,.8.653l.27.271L352,340.54l-.327-.3a4.6,4.6,0,0,0-.554-.412,3.1,3.1,0,0,0-.555-.242,2.619,2.619,0,0,0-.6-.142,4.834,4.834,0,0,0-.654-.043,3.235,3.235,0,0,0-1.237.228,2.874,2.874,0,0,0-1.01.654,2.961,2.961,0,0,0-.91,2.217,3.043,3.043,0,0,0,.228,1.208,3.111,3.111,0,0,0,.682,1,2.916,2.916,0,0,0,1.01.668,3.246,3.246,0,0,0,1.237.227,3.746,3.746,0,0,0,.7-.057,5.567,5.567,0,0,0,.654-.171,2.313,2.313,0,0,0,.6-.284,3.13,3.13,0,0,0,.54-.455l.142-.156.2-.213,1.379,1.478-.256.3a4.615,4.615,0,0,1-.825.753,5.8,5.8,0,0,1-.966.54,5.018,5.018,0,0,1-1.052.341,4.744,4.744,0,0,1-1.109.114A4.389,4.389,0,0,1,348.575,347.718Z" transform="translate(-290.232 -337.072)"/><path class="b" d="M369.13,347.633a4.169,4.169,0,0,1-1.25-.512,6.559,6.559,0,0,1-1.067-.8,5.162,5.162,0,0,1-1.151-1.648,4.805,4.805,0,0,1-.255-.682,4.382,4.382,0,0,1-.157-.725,4.318,4.318,0,0,1-.057-.739,5.4,5.4,0,0,1,.214-1.478,4.8,4.8,0,0,1,.255-.682,6.91,6.91,0,0,1,.327-.64,5.315,5.315,0,0,1,.824-1.023,6.555,6.555,0,0,1,1.067-.8,4.168,4.168,0,0,1,1.25-.512,5.531,5.531,0,0,1,2.729,0,5.015,5.015,0,0,1,1.251.512,6.123,6.123,0,0,1,1.066.8A5.318,5.318,0,0,1,375,339.73a6.677,6.677,0,0,1,.327.64,4.936,4.936,0,0,1,.256.682,6.542,6.542,0,0,1,.156.725,4.331,4.331,0,0,1,.057.753,6.92,6.92,0,0,1-.185,1.351,4.575,4.575,0,0,1-.512,1.251,6.557,6.557,0,0,1-.8,1.066,5.333,5.333,0,0,1-1.023.824,6.79,6.79,0,0,1-.64.327,4.824,4.824,0,0,1-.682.256,4.148,4.148,0,0,1-.71.142,4.326,4.326,0,0,1-.754.057A5.456,5.456,0,0,1,369.13,347.633Zm.6-8.088a3.433,3.433,0,0,0-.711.3,2.784,2.784,0,0,0-.611.469,2.4,2.4,0,0,0-.483.6l-.185.37c-.056.127-.1.27-.142.4a3.471,3.471,0,0,0-.1.412,3.449,3.449,0,0,0,0,.881,3.454,3.454,0,0,0,.1.412c.043.128.086.256.142.384l.185.369a2.413,2.413,0,0,0,.483.6,2.789,2.789,0,0,0,.611.469,3.493,3.493,0,0,0,.711.313,2.693,2.693,0,0,0,.767.1,3.856,3.856,0,0,0,.427-.028,3.432,3.432,0,0,0,.412-.1,3.971,3.971,0,0,0,.384-.142,2.768,2.768,0,0,0,.355-.2,3.843,3.843,0,0,0,.6-.483,3.358,3.358,0,0,0,.455-.626,3.9,3.9,0,0,0,.3-.725,2.867,2.867,0,0,0,.1-.782c0-.156-.015-.3-.028-.441a1.953,1.953,0,0,0-.1-.412,4.013,4.013,0,0,0-.142-.4c-.057-.128-.128-.241-.2-.37a3.1,3.1,0,0,0-.469-.6,2.791,2.791,0,0,0-.612-.469,3.431,3.431,0,0,0-.711-.3,3.021,3.021,0,0,0-1.535,0Z" transform="translate(-300.9 -337.086)"/><path class="b" d="M392.361,344.268v3.511h-2.175V337.6h3.895a3.293,3.293,0,0,1,1.265.241,3.037,3.037,0,0,1,1.052.725,3.415,3.415,0,0,1,.7,1.08,3.355,3.355,0,0,1,.228,1.279,3.559,3.559,0,0,1-.128.981,3,3,0,0,1-.4.867,3.242,3.242,0,0,1-.668.725,4.407,4.407,0,0,1-.953.54l1.108,1.137c.441.455.967.981,1.55,1.592l-.626.6-.881.824-1.55-1.635-2.146-2.288Zm-.014-2.118h1.72a1.114,1.114,0,0,0,.441-.085.912.912,0,0,0,.355-.271,1.514,1.514,0,0,0,.256-.384,1.045,1.045,0,0,0,.085-.427,1.112,1.112,0,0,0-.085-.44,1.516,1.516,0,0,0-.256-.384.915.915,0,0,0-.355-.27,1.106,1.106,0,0,0-.441-.085h-1.72Z" transform="translate(-313.506 -337.274)"/><path class="b" d="M409.532,347.764V337.6h3.852a3.434,3.434,0,0,1,.867.114,2.684,2.684,0,0,1,.782.327,4.842,4.842,0,0,1,.667.512,2.8,2.8,0,0,1,.512.64,2.317,2.317,0,0,1,.213.412,1.894,1.894,0,0,1,.156.427c.043.156.085.3.114.454s.028.313.028.469a3.543,3.543,0,0,1-.114.867,2.693,2.693,0,0,1-.327.782,3.891,3.891,0,0,1-.5.668,2.886,2.886,0,0,1-.64.511l-.4.213a2.3,2.3,0,0,1-.441.157c-.156.043-.3.085-.455.114s-.313.028-.469.028h-1.649v3.482C410.641,347.764,409.9,347.764,409.532,347.764Zm3.852-5.685a1.525,1.525,0,0,0,.441-.071,1.239,1.239,0,0,0,.369-.256.979.979,0,0,0,.242-.37,1.158,1.158,0,0,0,.085-.441,1.1,1.1,0,0,0-.085-.441,1.082,1.082,0,0,0-.611-.611,1.158,1.158,0,0,0-.441-.085h-1.649v2.274h1.649Z" transform="translate(-323.263 -337.274)"/></g><path class="a" d="M425.938,353.772a1.438,1.438,0,1,1-1.437-1.438A1.438,1.438,0,0,1,425.938,353.772Z" transform="translate(-330.088 -344.705)"/></g></g></svg>