<svg xmlns="http://www.w3.org/2000/svg" width="27.418" height="30.418" viewBox="0 0 27.418 30.418"><defs><style>.a,.b{fill:#fff;stroke:#030504;stroke-miterlimit:10;stroke-width:1.3px;}.b{stroke-linecap:round;}</style></defs><g transform="translate(0.671 0.65)"><ellipse class="a" cx="4.017" cy="4.017" rx="4.017" ry="4.017" transform="translate(8.953 0)"/><path class="b" d="M288.659,241.567a6.078,6.078,0,0,0-5.468,2.35c-1.78,2.358-2.589,3.429-4.249,4.509s-3.186,2.1-3.186,2.1a.851.851,0,0,0,0,1.524,5.772,5.772,0,0,0,3.85.445,13.364,13.364,0,0,0,3.053-2.191" transform="translate(-275.255 -232.218)"/><path class="b" d="M297.369,241.567a6.078,6.078,0,0,1,5.468,2.35c1.78,2.358,2.589,3.429,4.249,4.509s3.186,2.1,3.186,2.1a.851.851,0,0,1,0,1.524,5.771,5.771,0,0,1-3.85.445,13.369,13.369,0,0,1-3.054-2.191" transform="translate(-284.698 -232.218)"/><path class="b" d="M286.626,252.623v3.588a3.977,3.977,0,0,1-1.62,2.1c-1.333.921-4.7,3.525-4.7,3.525a2.155,2.155,0,0,0-.54,2.445,3.2,3.2,0,0,0,2.763,1.779c.794.032,2.706,0,2.706,0" transform="translate(-277.096 -236.954)"/><path class="b" d="M297.743,252.844v3.4a2.292,2.292,0,0,0,1.016,1.874c1.016.571,5.272,3.4,5.272,3.4a2.739,2.739,0,0,1,1.112,2.382,2.627,2.627,0,0,1-2.478,2.1c-.984.032-10,0-10,0a4.247,4.247,0,0,1-2.255-1.08c-.826-.889-1.429-2.509-.413-2.827s7.812-1.048,7.812-1.048" transform="translate(-281.321 -237.048)"/></g></svg>