<svg xmlns="http://www.w3.org/2000/svg" width="20.121" height="20" viewBox="0 0 20.121 20"><defs><style>.a{fill:#fff;}</style></defs><path class="a" d="M192.007,345.3a4.038,4.038,0,0,1-2.759-1.1l-2.446-2.269a1.114,1.114,0,0,0-1.508,0l-2.446,2.269h0a4.083,4.083,0,0,1-6.86-2.993v-6.341a3.329,3.329,0,0,1,1.061-2.432l6.742-6.255a3.334,3.334,0,0,1,4.514,0l6.742,6.255a3.329,3.329,0,0,1,1.061,2.433V341.2a4.031,4.031,0,0,1-2.45,3.742A4.127,4.127,0,0,1,192.007,345.3Zm-5.959-5.868a3.311,3.311,0,0,1,2.257.88l2.446,2.27A1.874,1.874,0,0,0,193.9,341.2v-6.341a1.113,1.113,0,0,0-.355-.813L186.8,327.8a1.115,1.115,0,0,0-1.508,0l-6.742,6.255a1.113,1.113,0,0,0-.354.813V341.2a1.873,1.873,0,0,0,3.147,1.373l2.446-2.27A3.311,3.311,0,0,1,186.048,339.427Z" transform="translate(-175.988 -325.295)"/><path class="a" d="M194.514,345.56a1.884,1.884,0,1,1,1.884,1.884A1.884,1.884,0,0,1,194.514,345.56Z" transform="translate(-186.338 -335.563)"/></svg>