<svg xmlns="http://www.w3.org/2000/svg" width="26.905" height="37.646" viewBox="0 0 26.905 37.646"><defs><style>.a{fill:#fff;stroke:#030504;stroke-linecap:round;stroke-miterlimit:10;stroke-width:1.3px;}</style></defs><g transform="translate(0.656 0.707)"><path class="a" d="M360.3,238.862s.6-4.378,1.988-5.674,2.42-1.815,2.766-2.507a56.118,56.118,0,0,1,5.7,1.037A8.154,8.154,0,0,1,375,235a5.99,5.99,0,0,1,.751,2.56" transform="translate(-357.643 -230.682)"/><path class="a" d="M362.93,237.369s-3.111,3.111-4.032,3.918-1.959,3.572-1.614,4.839a30.415,30.415,0,0,0,2.789,4.84s-.109-3.976,10.26-8.815" transform="translate(-357.216 -231.607)"/><path class="a" d="M371.137,235.7a25.924,25.924,0,0,0,4.524,1.988c1.525.346,4.831,1.7,4.258,5.731" transform="translate(-359.142 -231.376)"/><path class="a" d="M370.434,245s6.309,4.206,7.692,6.8c0,0,3.025-2.247,2.507-5.358s-2.938-3.025-2.938-3.025" transform="translate(-359.045 -232.444)"/><path class="a" d="M361.307,252.246s.462,8.988,7.519,8.9c0,0,7.26.519,7.52-8.9" transform="translate(-357.782 -233.666)"/><path class="a" d="M381.453,259.405l1.467-2.757a3.7,3.7,0,0,1,2.4-1.183c1.288.032.731,1.08.731,1.08l-2.2,4.135" transform="translate(-360.569 -234.111)"/><rect class="a" width="4.525" height="7.615" rx="0.968" transform="translate(20.015 24.997) rotate(28.014)"/><rect class="a" width="5.751" height="2.893" transform="translate(16.232 30.804) rotate(28.014)"/></g></svg>