<svg xmlns="http://www.w3.org/2000/svg" xmlns:xlink="http://www.w3.org/1999/xlink" width="57" height="57" viewBox="0 0 57 57"><defs><style>.a,.d,.g{fill:#ff5361;}.b,.c,.f{fill:none;}.b,.c{stroke:#fff;}.b{stroke-linejoin:round;}.e,.g{stroke:none;}.h{filter:url(#a);}</style><filter id="a" x="0" y="0" width="57" height="57" filterUnits="userSpaceOnUse"><feOffset dy="5" input="SourceAlpha"/><feGaussianBlur stdDeviation="5" result="b"/><feFlood flood-color="#b0aeb7" flood-opacity="0.251"/><feComposite operator="in" in2="b"/><feComposite in="SourceGraphic"/></filter></defs><g transform="translate(-126.887 -684.887)"><g class="h" transform="matrix(1, 0, 0, 1, 126.89, 684.89)"><path class="a" d="M13.5,0A13.5,13.5,0,1,1,0,13.5,13.5,13.5,0,0,1,13.5,0Z" transform="translate(15 10)"/></g><g transform="translate(-96.164 546.094)"><path class="b" d="M2360.748,129.955v5.24l3.281-1.239,3.525,1.239v-5.547Z" transform="translate(-2112.353 34.631)"/><g class="c" transform="translate(246.164 154.906)"><circle class="e" cx="5.5" cy="5.5" r="5.5"/><circle class="f" cx="5.5" cy="5.5" r="5"/></g></g><g class="d" transform="translate(150.903 701.903)"><path class="e" d="M 4.59698486328125 8.193974494934082 C 2.613604784011841 8.193974494934082 1.000004887580872 6.580374717712402 1.000004887580872 4.59698486328125 C 1.000004887580872 2.613604784011841 2.613604784011841 1.000004887580872 4.59698486328125 1.000004887580872 C 6.580374717712402 1.000004887580872 8.193974494934082 2.613604784011841 8.193974494934082 4.59698486328125 C 8.193974494934082 6.580374717712402 6.580374717712402 8.193974494934082 4.59698486328125 8.193974494934082 Z"/><path class="g" d="M 4.59698486328125 1.99999475479126 C 3.164994716644287 1.99999475479126 1.99999475479126 3.164994716644287 1.99999475479126 4.59698486328125 C 1.99999475479126 6.028964996337891 3.164994716644287 7.193964958190918 4.59698486328125 7.193964958190918 C 6.028964996337891 7.193964958190918 7.193964958190918 6.028964996337891 7.193964958190918 4.59698486328125 C 7.193964958190918 3.164994716644287 6.028964996337891 1.99999475479126 4.59698486328125 1.99999475479126 M 4.59698486328125 -4.76837158203125e-06 C 7.135825157165527 -4.76837158203125e-06 9.193964958190918 2.058145046234131 9.193964958190918 4.59698486328125 C 9.193964958190918 7.135825157165527 7.135825157165527 9.193964958190918 4.59698486328125 9.193964958190918 C 2.058145046234131 9.193964958190918 -4.76837158203125e-06 7.135825157165527 -4.76837158203125e-06 4.59698486328125 C -4.76837158203125e-06 2.058145046234131 2.058145046234131 -4.76837158203125e-06 4.59698486328125 -4.76837158203125e-06 Z"/></g><path class="c" d="M235.5,922.621v2.814" transform="translate(-80 -211)"/></g></svg>