<svg xmlns="http://www.w3.org/2000/svg" width="15.353" height="13.999" viewBox="0 0 15.353 13.999"><defs><style>.a{fill:#ff5361;}</style></defs><path class="a" d="M1056.623,1173.552a4.036,4.036,0,0,0-2.711-3.417,3.7,3.7,0,0,0-3.985.887l-.985.888-.9-.888a3.7,3.7,0,0,0-3.985-.887,4.037,4.037,0,0,0-2.712,3.417,5.125,5.125,0,0,0,.827,3.378,14.414,14.414,0,0,0,2.415,2.827c1.4,1.342,4.385,4.115,4.4,4.125.011-.01,2.995-2.783,4.4-4.125a14.419,14.419,0,0,0,2.415-2.827A5.128,5.128,0,0,0,1056.623,1173.552Z" transform="translate(-1041.308 -1169.882)"/></svg>