<svg xmlns="http://www.w3.org/2000/svg" width="13.917" height="12.944" viewBox="0 0 13.917 12.944"><defs><style>.a{fill:none;stroke:#000;}</style></defs><path class="a" d="M1054.193,1172.969a3.4,3.4,0,0,0-2.281-2.874,3.114,3.114,0,0,0-3.353.746l-.829.747-.756-.747a3.113,3.113,0,0,0-3.352-.746,3.4,3.4,0,0,0-2.281,2.874,4.312,4.312,0,0,0,.7,2.842,12.127,12.127,0,0,0,2.032,2.378c1.179,1.129,3.689,3.462,3.7,3.47.009-.008,2.519-2.341,3.7-3.47a12.127,12.127,0,0,0,2.032-2.378A4.313,4.313,0,0,0,1054.193,1172.969Z" transform="translate(-1040.808 -1169.373)"/></svg>